<?xml version="1.0" encoding="UTF-8" standalone="no"?>
<svg
   xmlns:dc="http://purl.org/dc/elements/1.1/"
   xmlns:cc="http://creativecommons.org/ns#"
   xmlns:rdf="http://www.w3.org/1999/02/22-rdf-syntax-ns#"
   xmlns:svg="http://www.w3.org/2000/svg"
   xmlns="http://www.w3.org/2000/svg"
   viewBox="0 0 257.33334 257.33334"
   height="257.33334"
   width="257.33334"
   xml:space="preserve"
   id="svg2"
   version="1.1"><metadata
     id="metadata8"><rdf:RDF><cc:Work
         rdf:about=""><dc:format>image/svg+xml</dc:format><dc:type
           rdf:resource="http://purl.org/dc/dcmitype/StillImage" /></cc:Work></rdf:RDF></metadata><defs
     id="defs6" /><g
     transform="matrix(1.3333333,0,0,-1.3333333,0,257.33333)"
     id="g10"><g
       transform="scale(0.1)"
       id="g12"><path
         id="path14"
         style="fill:#ffffff;fill-opacity:1;fill-rule:evenodd;stroke:none"
         d="M 0,1927.56 H 1927.56 V 0 H 0 v 1927.56" /><path
         id="path16"
         style="fill:#ea2427;fill-opacity:1;fill-rule:evenodd;stroke:none"
         d="m 1470.09,1779.91 c -82.66,8.16 -300.88,20.36 -506.688,20.36 -205.824,0 -424.023,-12.2 -506.648,-20.36 -94.344,-9.62 -138.215,-57.55 -138.215,-150.94 0,-177.3 6.531,-453.58 18.637,-615.86 C 348,868.449 356.445,754.227 536.566,644.801 665.426,566.473 793.578,499.348 960.441,413.25 l 2.864,-1.621 2.953,1.621 c 167.242,86.379 295.632,153.508 423.972,231.551 180.22,109.519 188.71,223.648 199.38,368.309 12.21,163.05 18.79,439.04 18.79,615.86 0,93.39 -43.97,141.32 -138.31,150.94 z m 63.66,-762.86 C 1523.45,878.613 1516.63,787.066 1361.21,692.668 1239.24,618.543 1131.64,562.043 968.98,477.563 l -5.578,-2.676 -5.531,2.676 C 800.352,559.23 687.98,618.352 565.648,692.668 410.168,787.066 403.262,878.711 393.059,1017.2 c -12.067,161.43 -18.543,435.66 -18.543,611.77 0,64.5 22.125,88.43 87.816,95.16 81.707,8.06 297.586,20.17 501.07,20.17 203.568,0 419.308,-12.11 501.108,-20.17 65.69,-6.73 87.78,-30.66 87.78,-95.16 0,-176.02 -6.49,-450.15 -18.54,-611.92" /><path
         id="path18"
         style="fill:#ea2427;fill-opacity:1;fill-rule:evenodd;stroke:none"
         d="m 954.766,1385.55 -19.407,-65.18 c -70.277,143.64 -154.171,219.02 -255.73,219.02 -109.75,0 -163.473,-73.48 -179.348,-96.69 28.215,70.8 102.641,133.06 201.754,133.06 135.832,0 212.598,-107.26 252.731,-190.21" /><path
         id="path20"
         style="fill:#ea2427;fill-opacity:1;fill-rule:evenodd;stroke:none"
         d="m 445.789,1238.32 c 0.856,-239.281 70.469,-354.371 174.391,-354.371 48.152,0 82.664,30.317 82.664,79.614 0,42.057 -18.258,75.417 -25.688,88.817 2.813,-13.77 5.391,-29.42 5.391,-47.04 0,-41.25 -27.852,-54.547 -50.637,-54.547 -69.125,0 -138.25,134.437 -157.805,287.527 -8.718,0 -28.558,0 -28.316,0" /><path
         id="path22"
         style="fill:#ea2427;fill-opacity:1;fill-rule:evenodd;stroke:none"
         d="m 1224.91,1575.76 c 99.15,0 173.43,-62.26 201.8,-133.06 -15.88,23.21 -69.61,96.69 -179.5,96.69 -101.35,0 -185.27,-75.38 -255.593,-219.02 l -19.406,65.18 c 40.059,82.95 116.949,190.21 252.699,190.21" /><path
         id="path24"
         style="fill:#ea2427;fill-opacity:1;fill-rule:evenodd;stroke:none"
         d="m 1452.88,1238.32 c -19.49,-153.09 -88.67,-287.527 -157.91,-287.527 -22.73,0 -50.47,13.297 -50.47,54.547 0,17.62 2.46,33.27 5.24,47.04 -7.35,-13.4 -25.61,-46.76 -25.61,-88.817 0,-49.297 34.48,-79.614 82.67,-79.614 103.84,0 173.59,115.09 174.34,354.371 0.31,0 -19.48,0 -28.26,0" /><path
         id="path26"
         style="fill:#ea2427;fill-opacity:1;fill-rule:evenodd;stroke:none"
         d="m 1311.72,1444.13 c -88.78,0 -175.55,-70.8 -227.46,-234.17 l 33.56,-23.41 -16.07,-80.34 -62.79,-25.98 -11.39,-78.94 30.61,37.51 32.8,13.58 -10.21,-51 -56.58,-23.505 -19.84,-136.508 13.82,-43.57 -54.674,-21.692 -54.726,21.692 13.859,43.57 -19.883,136.508 -56.637,23.505 -10.097,51 32.75,-13.58 30.703,-37.51 -11.539,78.94 -62.696,25.98 -16.164,80.34 33.614,23.41 c -51.867,163.37 -138.59,234.17 -227.461,234.17 -109.789,0 -155.278,-104.22 -149.36,-190.08 h 26.461 c 21.973,-121.42 83.719,-224.3 130.157,-224.3 14.203,0 21.632,10.82 21.632,28.59 0,42.81 -29.214,87.62 -29.214,169.5 0,37.7 12.3,61.35 40.613,61.35 19.308,0 35.097,-20.31 44.484,-42.48 -17.16,-61.16 -14.59,-112.37 34.235,-134.17 24.125,-10.71 53.203,-23.5 53.203,-23.5 0,0 30.992,-131.29 33.234,-140.681 2.039,-8.582 7.375,-20.312 11.297,-27.554 5.664,-9.867 46.34,-79.532 46.34,-79.532 0,0 13.828,-69.464 16.773,-84.234 7.973,-39.758 36.34,-39.855 68.422,-39.758 31.988,-0.097 60.354,0 68.364,39.758 2.95,14.77 16.83,84.234 16.83,84.234 0,0 40.57,69.665 46.38,79.532 3.86,7.242 9.16,18.972 11.11,27.554 2.24,9.391 33.28,140.681 33.28,140.681 0,0 29.13,12.79 53.31,23.5 48.77,21.8 51.39,73.01 34.17,134.17 9.4,22.17 25.24,42.48 44.53,42.48 28.33,0 40.57,-23.65 40.57,-61.35 0,-81.88 -29.22,-126.69 -29.22,-169.5 0,-17.77 7.44,-28.59 21.64,-28.59 46.34,0 108.18,102.88 130.25,224.3 h 26.37 c 5.92,85.86 -39.52,190.08 -149.36,190.08 z M 753.332,1136.2 c -34.555,14.68 -38.078,55.59 -26.551,110.03 l 37.852,-59.49 14.07,-61.37 c 0,0 -13.676,5.86 -25.371,10.83 z m 420.308,0 c -11.76,-4.97 -25.46,-10.83 -25.46,-10.83 l 14.03,61.37 37.89,59.49 c 11.55,-54.44 8.06,-95.35 -26.46,-110.03" /><path
         id="path28"
         style="fill:#231f20;fill-opacity:1;fill-rule:evenodd;stroke:none"
         d="m 888.695,232.754 v -65.695 c 0,0 67.071,0 89.481,0 49.534,0 68.274,19.828 68.274,47.191 0,17.977 -8.93,47.004 -67.509,47.004 -20.554,0 -151.128,0 -151.128,0 v 36.961 c 0,0 102.394,0 157.656,0 100.321,0 123.731,-42.438 123.731,-83.965 0,-49.812 -33.67,-84.289 -123.973,-84.289 -55.489,0 -157.414,0 -157.414,0 v 102.793 h 60.882" /><path
         id="path30"
         style="fill:#231f20;fill-opacity:1;fill-rule:evenodd;stroke:none"
         d="m 220.332,232.754 v -65.695 c 0,0 67.168,0 89.535,0 49.528,0 68.219,19.828 68.219,47.191 0,17.977 -8.867,47.004 -67.504,47.004 -20.559,0 -151.035,0 -151.035,0 v 36.961 c 0,0 102.41,0 157.617,0 100.395,0 123.801,-42.438 123.801,-83.965 0,-49.812 -33.797,-84.289 -123.992,-84.289 -55.543,0 -157.426,0 -157.426,0 v 102.793 h 60.785" /><path
         id="path32"
         style="fill:#231f20;fill-opacity:1;fill-rule:evenodd;stroke:none"
         d="m 1289.16,232.941 v -37.23 h 89.21 v -28.652 c 0,0 -66.23,0 -88.73,0 -50.4,0 -69.07,19.828 -69.07,47.191 0,30.52 25.35,46.91 65.59,46.91 20.54,0 152.98,0 152.98,0 v 37.055 c 0,0 -100.06,0 -155.32,0 -79.76,0 -126,-25.227 -126,-83.965 0,-57.543 44.68,-84.289 123.67,-84.289 55.54,0 157.65,0 157.65,0 v 102.98 h -149.98" /><path
         id="path34"
         style="fill:#231f20;fill-opacity:1;fill-rule:evenodd;stroke:none"
         d="m 1574.36,261.457 h 191.6 v 36.758 H 1509.51 V 129.961 h 258.51 v 37.098 h -193.66 v 28.746 h 181.35 v 37.043 h -181.35 v 28.609" /><path
         id="path36"
         style="fill:#231f20;fill-opacity:1;fill-rule:evenodd;stroke:none"
         d="m 632.289,127.285 c -103.793,0 -143.398,34.043 -143.398,86.965 0,52.488 40.906,86.773 143.398,86.773 102.465,0 143.359,-34.285 143.359,-86.773 0,-52.922 -40.894,-86.965 -143.359,-86.965 z m 80.531,86.965 c 0,28.746 -27.894,49.828 -80.531,49.828 -53.059,0 -80.574,-21.082 -80.574,-49.828 0,-27.457 24.746,-49.906 80.574,-49.906 56.598,0 80.531,22.449 80.531,49.906" /></g></g></svg>